<svg xmlns="http://www.w3.org/2000/svg" width="1600" height="620" style="width:100%;height:auto;display:block" viewBox="0 0 1600 620" role="img" aria-labelledby="title desc">
  <title id="title">CLAW Bridge</title>
  <desc id="desc">Android-first local AI agent harness for Codex, Claude Code and Termux.</desc>
  <defs>
    <linearGradient id="bg" x1="0" y1="0" x2="1" y2="1">
      <stop offset="0" stop-color="#070808"/>
      <stop offset="1" stop-color="#111315"/>
    </linearGradient>
    <radialGradient id="glow" cx=".72" cy=".5" r=".55">
      <stop offset="0" stop-color="#ef3d45" stop-opacity=".2"/>
      <stop offset="1" stop-color="#ef3d45" stop-opacity="0"/>
    </radialGradient>
    <pattern id="grid" width="42" height="42" patternUnits="userSpaceOnUse">
      <path d="M42 0H0V42" fill="none" stroke="#fff" stroke-opacity=".035"/>
    </pattern>
    <filter id="shadow" x="-30%" y="-30%" width="160%" height="160%">
      <feDropShadow dx="0" dy="22" stdDeviation="28" flood-color="#000" flood-opacity=".55"/>
    </filter>
  </defs>
  <rect width="1600" height="620" rx="36" fill="url(#bg)"/>
  <rect width="1600" height="620" rx="36" fill="url(#grid)"/>
  <rect width="1600" height="620" rx="36" fill="url(#glow)"/>
  <path d="M0 0h14v620H0z" fill="#ef3d45"/>
  <g transform="translate(92 90)">
    <g font-family="ui-monospace,SFMono-Regular,Menlo,monospace" font-size="20" font-weight="700" letter-spacing="5">
      <text fill="#ef3d45">ANDROID-FIRST</text>
      <text x="205" fill="#8f969d">LOCAL AGENT HARNESS</text>
    </g>
    <text y="118" fill="#f7f8f8" font-family="Inter,Arial,sans-serif" font-size="82" font-weight="800" letter-spacing="-3">CLAW BRIDGE</text>
    <text y="178" fill="#aeb4ba" font-family="Inter,Arial,sans-serif" font-size="28">
      Codex, Claude Code and Termux.
    </text>
    <text y="219" fill="#aeb4ba" font-family="Inter,Arial,sans-serif" font-size="28">
      One control plane. Directly on Android.
    </text>
    <g transform="translate(0 282)" font-family="ui-monospace,SFMono-Regular,Menlo,monospace" font-size="19" font-weight="600">
      <g><rect width="194" height="52" rx="26" fill="#171a1c" stroke="#34383b"/><circle cx="28" cy="26" r="6" fill="#7cff6b"/><text x="47" y="33" fill="#e8eaea">LOCAL-FIRST</text></g>
      <g transform="translate(210)"><rect width="195" height="52" rx="26" fill="#171a1c" stroke="#34383b"/><text x="24" y="33" fill="#e8eaea">APK + TERMUX</text></g>
      <g transform="translate(421)"><rect width="182" height="52" rx="26" fill="#171a1c" stroke="#34383b"/><text x="24" y="33" fill="#e8eaea">TOKEN AUTH</text></g>
    </g>
    <g transform="translate(0 382)" font-family="ui-monospace,SFMono-Regular,Menlo,monospace" font-size="20">
      <rect width="606" height="66" rx="16" fill="#050606" stroke="#292d30"/>
      <text x="24" y="41" fill="#6e757b">$</text>
      <text x="53" y="41" fill="#f2f3f3">claw up --gateway-only</text>
      <rect x="369" y="27" width="12" height="19" rx="2" fill="#7cff6b"/>
    </g>
  </g>

  <g transform="translate(1015 42)" filter="url(#shadow)">
    <rect width="472" height="536" rx="46" fill="#090a0b" stroke="#35393c" stroke-width="2"/>
    <rect x="27" y="27" width="418" height="482" rx="30" fill="#101214"/>
    <g transform="translate(62 58)">
      <text y="22" fill="#92989e" font-family="ui-monospace,SFMono-Regular,Menlo,monospace" font-size="17" letter-spacing="3">CLAW</text>
      <text x="78" y="22" fill="#fff" font-family="Inter,Arial,sans-serif" font-size="24" font-weight="700">Dashboard</text>
      <circle cx="318" cy="14" r="7" fill="#7cff6b"/>
      <text x="334" y="21" fill="#aeb4ba" font-family="Inter,Arial,sans-serif" font-size="16">Online</text>
      <rect y="56" width="348" height="238" rx="24" fill="#17191b" stroke="#303438"/>
      <text x="24" y="88" fill="#777e84" font-family="ui-monospace,SFMono-Regular,Menlo,monospace" font-size="15">ws://127.0.0.1:8787</text>
      <text x="24" y="126" fill="#fff" font-family="Inter,Arial,sans-serif" font-size="23" font-weight="700">localhost</text>
      <path d="M24 166h300M24 222h300" stroke="#303438"/>
      <circle cx="302" cy="194" r="6" fill="#7cff6b"/>
      <text x="24" y="194" fill="#f5f6f6" font-family="Inter,Arial,sans-serif" font-size="18" font-weight="600">Gateway</text>
      <text x="24" y="250" fill="#f5f6f6" font-family="Inter,Arial,sans-serif" font-size="18" font-weight="600">Termux</text>
      <circle cx="302" cy="250" r="6" fill="#7cff6b"/>
      <g transform="translate(0 318)">
        <rect width="166" height="72" rx="18" fill="#f1f2f2"/>
        <text x="22" y="43" fill="#111315" font-family="Inter,Arial,sans-serif" font-size="17" font-weight="700">New command</text>
        <rect x="182" width="166" height="72" rx="18" fill="#17191b" stroke="#34383b"/>
        <text x="210" y="43" fill="#f5f6f6" font-family="Inter,Arial,sans-serif" font-size="17" font-weight="700">Terminal</text>
      </g>
      <g transform="translate(0 406)">
        <rect width="166" height="54" rx="17" fill="#17191b" stroke="#34383b"/>
        <text x="41" y="34" fill="#c8cccf" font-family="Inter,Arial,sans-serif" font-size="15" font-weight="600">Approvals</text>
        <rect x="182" width="166" height="54" rx="17" fill="#17191b" stroke="#34383b"/>
        <text x="228" y="34" fill="#c8cccf" font-family="Inter,Arial,sans-serif" font-size="15" font-weight="600">Settings</text>
      </g>
    </g>
  </g>

  <g transform="translate(884 62) scale(.19)">
    <rect width="512" height="512" rx="116" fill="#090b0d" stroke="#34383b" stroke-width="8"/>
    <g fill="#ef3d45" stroke="#ef3d45" stroke-linecap="round" stroke-linejoin="round">
      <path d="M131 171c-52-15-83 5-87 39 30-11 52-2 63 18-36 4-56 25-51 58 47-2 79-28 92-72z"/><path d="m143 213 52 41" fill="none" stroke-width="20"/>
      <path d="M381 171c52-15 83 5 87 39-30-11-52-2-63 18 36 4 56 25 51 58-47-2-79-28-92-72z"/><path d="m369 213-52 41" fill="none" stroke-width="20"/>
      <path d="M151 243c13-65 53-100 105-100s92 35 105 100v87c-25 28-60 43-105 43s-80-15-105-43z"/>
      <path d="m159 286-51 38m57-6-39 61m227-93 51 38m-57-6 39 61" fill="none" stroke-width="18"/>
    </g>
    <circle cx="216" cy="209" r="11" fill="#090b0d"/><circle cx="296" cy="209" r="11" fill="#090b0d"/>
    <path d="M149 331c24-58 60-86 107-86s83 28 107 86" fill="none" stroke="#fff" stroke-width="17" stroke-linecap="round"/>
    <path d="m216 284 32 24-32 24" fill="none" stroke="#fff" stroke-width="15" stroke-linecap="round" stroke-linejoin="round"/>
    <path d="M263 332h49" fill="none" stroke="#7cff6b" stroke-width="15" stroke-linecap="round"/>
  </g>
</svg>